<svg id="Layer_1" data-name="Layer 1" xmlns="http://www.w3.org/2000/svg" viewBox="0 0 138 138"><defs><style>.cls-1{fill:#fff;}</style></defs><title>Artboard 2</title><path class="cls-1" d="M69,0a69,69,0,1,0,69,69A69,69,0,0,0,69,0Zm0,135a66,66,0,1,1,66-66A66.12,66.12,0,0,1,69,135Z"/><path class="cls-1" d="M80.11,87.26H57.89a1.5,1.5,0,0,0,0,3H80.11a1.5,1.5,0,0,0,0-3Z"/><path class="cls-1" d="M66.84,84.59a1.5,1.5,0,0,0,1.09.55H68a1.5,1.5,0,0,0,1.07-.45L81.18,72.38A1.5,1.5,0,0,0,79,70.28l-9.39,9.54V48.5a1.5,1.5,0,0,0-3,0V79.63l-7.59-9.25a1.5,1.5,0,1,0-2.32,1.9Z"/></svg>